<?xml version="1.0" encoding="UTF-8"?>
<svg id="Layer_1" xmlns="http://www.w3.org/2000/svg" version="1.1" viewBox="-20 -12 372.2 118.6">
  <!-- Generator: Adobe Illustrator 30.3.0, SVG Export Plug-In . SVG Version: 2.1.3 Build 182)  -->
  <defs>
    <style>
      .st0 {
        fill: #f5f0e8;
      }
    </style>
  </defs>
  <g id="Pane">
    <path class="st0" d="M29.9,31.2h-11v32.8h.9v-10.8h10.8c6.1,0,8.5-5.2,8.5-11s-3-11-9.3-11ZM30.9,52.2h-11v-20.1h10.3c6,0,8.1,4.9,8.1,10.1s-2.3,10.1-7.4,10.1Z"/>
    <path class="st0" d="M46,53.1l-4.4,10.8h-1.1l13.3-32.8h1.2l12.9,32.8h-1l-4.3-10.8h-16.7ZM62.3,52.2l-7.8-20.1h0l-8.1,20.1h16Z"/>
    <path class="st0" d="M73.5,31.2h1.4l22.4,31.6h0v-31.6h.9v32.8h-1.4l-22.4-31.6h0v31.6h-.9V31.2Z"/>
    <polygon class="st0" points="105.1 32.1 105.1 52.2 115.2 52.2 115.2 53.2 105.1 53.2 105.1 63 116.8 63 116.8 63.9 104.2 63.9 104.2 31.2 116.8 31.2 116.8 32.1 105.1 32.1"/>
  </g>
  <g id="Matteo">
    <path class="st0" d="M178.5,30.7h1.5v33.1h-.9v-32h0l-14.1,21.1h-1l-14.1-21.1h0v32h-.9V30.7h1.5l14,21.3h0l14-21.3Z"/>
    <path class="st0" d="M192.6,53l-4.4,10.9h-1.1l13.5-33.1h1.2l13.1,33.1h-1l-4.4-10.9h-16.9ZM209.1,52l-7.9-20.4h0l-8.2,20.4h16.2Z"/>
    <polygon class="st0" points="259.9 30.7 259.9 31.7 249.2 31.7 249.2 63.9 248.4 63.9 248.4 31.7 237.7 31.7 237.7 30.7 259.9 30.7"/>
    <polygon class="st0" points="235.5 30.7 235.5 31.7 224.9 31.7 224.9 63.9 224 63.9 224 31.7 213.4 31.7 213.4 30.7 235.5 30.7"/>
    <polygon class="st0" points="266.5 31.7 266.5 52 276.8 52 276.8 53 266.5 53 266.5 62.9 278.4 62.9 278.4 63.9 265.6 63.9 265.6 30.7 278.4 30.7 278.4 31.7 266.5 31.7"/>
    <path class="st0" d="M302.3,31.7c8.6,0,15.6,7,15.6,15.6s-7,15.6-15.6,15.6-15.6-7-15.6-15.6,7-15.6,15.6-15.6M302.3,30.7c-9.2,0-16.6,7.4-16.6,16.6s7.4,16.6,16.6,16.6,16.6-7.4,16.6-16.6-7.4-16.6-16.6-16.6h0Z"/>
  </g>
  <g id="di">
    <path class="st0" d="M139.9,53.1v10.8h.9v-10.8h-.9Z"/>
    <rect class="st0" x="134.3" y="29" width=".9" height="34.9"/>
    <circle class="st0" cx="140.4" cy="49.9" r=".6"/>
    <path class="st0" d="M130,54.3c2.4,0,4.3,1.9,4.3,4.3s-1.9,4.3-4.3,4.3-4.3-1.9-4.3-4.3,1.9-4.3,4.3-4.3M130,53.4c-2.9,0-5.2,2.3-5.2,5.2s2.3,5.2,5.2,5.2,5.2-2.3,5.2-5.2-2.3-5.2-5.2-5.2h0Z"/>
  </g>
  <rect class="st0" x="147.5" y="72.7" width="171.3" height="1"/>
  <rect class="st0" x="18.6" y="22.7" width="100.9" height="1"/>
</svg>